<svg width="21" height="20" viewBox="0 0 21 20" fill="none" xmlns="http://www.w3.org/2000/svg">
<path d="M5.91943 1.66667L3.41943 5.00001V16.6667C3.41943 17.1087 3.59503 17.5326 3.90759 17.8452C4.22015 18.1577 4.64407 18.3333 5.0861 18.3333H16.7528C17.1948 18.3333 17.6187 18.1577 17.9313 17.8452C18.2438 17.5326 18.4194 17.1087 18.4194 16.6667V5.00001L15.9194 1.66667H5.91943Z" stroke="#444444" stroke-width="1.5" stroke-linecap="round" stroke-linejoin="round"/>
<path d="M3.41943 5H18.4194" stroke="#444444" stroke-width="1.5" stroke-linecap="round" stroke-linejoin="round"/>
<path d="M14.2526 8.33333C14.2526 9.21738 13.9014 10.0652 13.2763 10.6904C12.6512 11.3155 11.8033 11.6667 10.9193 11.6667C10.0352 11.6667 9.18737 11.3155 8.56225 10.6904C7.93713 10.0652 7.58594 9.21738 7.58594 8.33333" stroke="#444444" stroke-width="1.5" stroke-linecap="round" stroke-linejoin="round"/>
</svg>
