<svg width="20" height="20" viewBox="0 0 20 20" fill="none" xmlns="http://www.w3.org/2000/svg">
<path fill-rule="evenodd" clip-rule="evenodd" d="M3.77948 12.946C4.54525 12.1802 5.58386 11.75 6.66683 11.75H13.3335C14.4165 11.75 15.4551 12.1802 16.2208 12.946C16.9866 13.7118 17.4168 14.7504 17.4168 15.8333V17.5C17.4168 17.9142 17.081 18.25 16.6668 18.25C16.2526 18.25 15.9168 17.9142 15.9168 17.5V15.8333C15.9168 15.1482 15.6447 14.4911 15.1602 14.0066C14.6757 13.5222 14.0186 13.25 13.3335 13.25H6.66683C5.98169 13.25 5.32461 13.5222 4.84014 14.0066C4.35567 14.4911 4.0835 15.1482 4.0835 15.8333V17.5C4.0835 17.9142 3.74771 18.25 3.3335 18.25C2.91928 18.25 2.5835 17.9142 2.5835 17.5V15.8333C2.5835 14.7504 3.0137 13.7118 3.77948 12.946Z" fill="#444444"/>
<path fill-rule="evenodd" clip-rule="evenodd" d="M9.99984 3.25C8.5731 3.25 7.4165 4.4066 7.4165 5.83333C7.4165 7.26007 8.5731 8.41667 9.99984 8.41667C11.4266 8.41667 12.5832 7.26007 12.5832 5.83333C12.5832 4.4066 11.4266 3.25 9.99984 3.25ZM5.9165 5.83333C5.9165 3.57817 7.74467 1.75 9.99984 1.75C12.255 1.75 14.0832 3.57817 14.0832 5.83333C14.0832 8.0885 12.255 9.91667 9.99984 9.91667C7.74467 9.91667 5.9165 8.0885 5.9165 5.83333Z" fill="#444444"/>
</svg>
